<svg width="396" height="396" viewBox="0 0 396 396" fill="none" xmlns="http://www.w3.org/2000/svg">
<rect width="396" height="396" rx="15" fill="#FFE3D4"/>
<g opacity="0.5">
<path d="M63.25 88.25C53.875 97.625 44.5 108.25 44.5 122.625C44.5 127.139 45.3891 131.609 47.1166 135.78C48.8441 139.95 51.3762 143.74 54.5682 146.932C61.0148 153.378 69.7582 157 78.875 157C90.125 157 97.625 153.875 107 144.5C116.375 153.875 123.875 157 135.125 157C139.639 157 144.109 156.111 148.28 154.383C152.45 152.656 156.24 150.124 159.432 146.932C162.624 143.74 165.156 139.95 166.883 135.78C168.611 131.609 169.5 127.139 169.5 122.625C169.5 108.25 160.125 97.625 150.75 88.25L107 44.5L63.25 88.25Z" stroke="black" stroke-width="15" stroke-linecap="round" stroke-linejoin="round"/>
<path d="M107 144.5V169.5" stroke="black" stroke-width="15" stroke-linecap="round" stroke-linejoin="round"/>
</g>
<g opacity="0.5">
<path d="M332.75 119.5C342.063 110.375 351.5 99.4375 351.5 85.125C351.5 76.0082 347.878 67.2648 341.432 60.8182C334.985 54.3716 326.242 50.75 317.125 50.75C306.125 50.75 298.375 53.875 289 63.25C279.625 53.875 271.875 50.75 260.875 50.75C251.758 50.75 243.015 54.3716 236.568 60.8182C230.122 67.2648 226.5 76.0082 226.5 85.125C226.5 99.5 235.875 110.437 245.25 119.5L289 163.25L332.75 119.5Z" stroke="#FF5050" stroke-width="15" stroke-linecap="round" stroke-linejoin="round"/>
</g>
<g opacity="0.5">
<path d="M48.8752 278.375C47.4749 279.774 46.364 281.435 45.606 283.264C44.8481 285.092 44.458 287.052 44.458 289.031C44.458 291.011 44.8481 292.971 45.606 294.799C46.364 296.628 47.4749 298.289 48.8752 299.688L96.3127 347.125C97.7115 348.525 99.3727 349.636 101.201 350.394C103.03 351.152 104.99 351.542 106.969 351.542C108.948 351.542 110.908 351.152 112.737 350.394C114.565 349.636 116.226 348.525 117.625 347.125L165.063 299.688C166.463 298.289 167.574 296.628 168.332 294.799C169.09 292.971 169.48 291.011 169.48 289.031C169.48 287.052 169.09 285.092 168.332 283.264C167.574 281.435 166.463 279.774 165.063 278.375L117.625 230.938C116.226 229.537 114.565 228.426 112.737 227.669C110.908 226.911 108.948 226.521 106.969 226.521C104.99 226.521 103.03 226.911 101.201 227.669C99.3727 228.426 97.7115 229.537 96.3127 230.938L48.8752 278.375Z" stroke="#FF5050" stroke-width="15" stroke-linecap="round" stroke-linejoin="round"/>
</g>
<g opacity="0.5">
<path d="M322 270.562C323.494 265.439 323.775 260.039 322.82 254.788C321.866 249.538 319.702 244.582 316.5 240.313C313.298 236.043 309.146 232.578 304.373 230.192C299.6 227.805 294.336 226.562 289 226.562C283.663 226.562 278.4 227.805 273.627 230.192C268.854 232.578 264.702 236.043 261.5 240.313C258.298 244.582 256.134 249.538 255.179 254.788C254.225 260.039 254.506 265.439 256 270.562C250.362 271.373 245.014 273.571 240.437 276.96C235.859 280.349 232.196 284.823 229.775 289.978C227.354 295.134 226.253 300.81 226.569 306.497C226.886 312.184 228.61 317.703 231.587 322.558C234.565 327.413 238.702 331.453 243.627 334.313C248.552 337.174 254.111 338.765 259.804 338.946C265.496 339.126 271.145 337.889 276.241 335.345C281.337 332.802 285.721 329.032 289 324.375C292.27 329.045 296.651 332.828 301.747 335.384C306.843 337.94 312.495 339.188 318.194 339.017C323.892 338.845 329.459 337.258 334.392 334.4C339.324 331.542 343.469 327.501 346.452 322.643C349.435 317.784 351.163 312.26 351.479 306.567C351.796 300.875 350.692 295.193 348.267 290.034C345.841 284.874 342.171 280.399 337.586 277.011C333 273.623 327.644 271.428 322 270.625V270.562Z" stroke="black" stroke-width="15" stroke-linecap="round" stroke-linejoin="round"/>
<path d="M289 324.375V351.5" stroke="black" stroke-width="15" stroke-linecap="round" stroke-linejoin="round"/>
</g>
</svg>
